<svg aria-hidden="true" style="position: absolute; width: 0; height: 0; overflow: hidden;" version="1.1" xmlns="http://www.w3.org/2000/svg" xmlns:xlink="http://www.w3.org/1999/xlink">
<defs>
<symbol id="icon-edit" viewBox="0 0 32 32">
<path stroke-linejoin="miter" stroke-linecap="butt" stroke-miterlimit="4" stroke-width="1.0323" d="M22.162 5.543l4.852 5.457c0.095 0.112 0.153 0.258 0.153 0.418s-0.058 0.306-0.154 0.418l0.001-0.001-11.742 13.213-4.989 0.619c-0.017 0.001-0.036 0.001-0.056 0.001-0.616 0-1.116-0.5-1.116-1.116 0-0.066 0.006-0.13 0.017-0.193l-0.001 0.007 0.553-5.614 11.74-13.209c0.090-0.106 0.223-0.173 0.371-0.173s0.282 0.067 0.37 0.172l0.001 0.001zM30.872 4.158l-2.624-2.952c-0.358-0.423-0.89-0.689-1.484-0.689s-1.125 0.267-1.482 0.687l-0.002 0.003-1.903 2.142c-0.095 0.112-0.153 0.258-0.153 0.418s0.058 0.306 0.154 0.418l-0.001-0.001 4.852 5.457c0.090 0.106 0.223 0.173 0.371 0.173s0.282-0.067 0.37-0.172l0.001-0.001 1.9-2.142c0.381-0.447 0.613-1.031 0.613-1.67s-0.232-1.223-0.616-1.673l0.003 0.004zM21.161 21.453v6.158h-17.205v-19.361h12.353c0.182-0.004 0.345-0.084 0.457-0.211l0.001-0.001 2.15-2.42c0.122-0.132 0.198-0.309 0.198-0.503 0-0.379-0.285-0.691-0.651-0.735l-0.003-0h-15.363c-1.447 0.093-2.585 1.29-2.585 2.752 0 0.054 0.002 0.107 0.005 0.16l-0-0.007v21.294c-0.003 0.045-0.004 0.099-0.004 0.152 0 1.462 1.138 2.658 2.577 2.751l0.008 0h18.924c1.447-0.093 2.585-1.29 2.585-2.752 0-0.053-0.002-0.107-0.005-0.159l0 0.007v-9.546c0.003-0.024 0.005-0.051 0.005-0.079 0-0.353-0.287-0.64-0.64-0.64-0.184 0-0.35 0.078-0.467 0.202l-0 0-2.15 2.42c-0.117 0.137-0.188 0.317-0.188 0.513 0 0.001 0 0.002 0 0.003v-0z"></path>
</symbol>
<symbol id="icon-awesome-filter" viewBox="0 0 32 32">
<path stroke-linejoin="miter" stroke-linecap="butt" stroke-miterlimit="4" stroke-width="1.0316" d="M30.034 0.516h-28.042c-0.8 0.002-1.449 0.651-1.449 1.451 0 0.4 0.162 0.762 0.423 1.024l11.178 11.181v12.454c0 0.49 0.243 0.923 0.614 1.185l0.005 0.003 4.835 3.384c0.232 0.164 0.52 0.262 0.831 0.262 0.801 0 1.451-0.649 1.451-1.45v-15.838l11.179-11.181c0.262-0.262 0.423-0.625 0.423-1.024 0-0.801-0.649-1.45-1.449-1.451h-0z"></path>
</symbol>
<symbol id="icon-half-star" viewBox="0 0 32 32">
<path d="M32 12.194l-11.504-1.044-4.496-11.15-4.496 11.166-11.504 1.028 8.736 7.966-2.624 11.84 9.888-6.282 9.888 6.282-2.608-11.84zM16 22.569v-15.663l2.736 6.804 7.008 0.64-5.312 4.85 1.6 7.209z"></path>
</symbol>
<symbol id="icon-heart" viewBox="0 0 32 32">
<path stroke-linejoin="miter" stroke-linecap="butt" stroke-miterlimit="4" stroke-width="1.0321" d="M29.22 3.572c-1.377-1.846-3.547-3.034-5.995-3.056l-0.003-0c-1.996 0.050-3.765 0.983-4.935 2.423l-0.009 0.012c-0.963 1.121-1.737 2.438-2.253 3.878l-0.027 0.087c-0.542-1.527-1.317-2.845-2.294-3.983l0.014 0.017c-1.18-1.451-2.949-2.383-4.936-2.432l-0.008-0c-2.452 0.022-4.622 1.21-5.984 3.036l-0.014 0.020c-1.41 1.868-2.259 4.228-2.259 6.787 0 0.031 0 0.062 0 0.093l-0-0.005c0.026 3.29 0.921 6.365 2.465 9.015l-0.047-0.087c1.461 2.524 3.206 4.686 5.232 6.547l0.020 0.018c2.213 2.082 4.71 3.903 7.415 5.391l0.189 0.095c0.061 0.032 0.134 0.051 0.211 0.051s0.15-0.019 0.214-0.052l-0.003 0.001c2.893-1.584 5.388-3.405 7.619-5.504l-0.019 0.017c2.046-1.879 3.791-4.041 5.182-6.434l0.070-0.131c1.496-2.564 2.388-5.639 2.413-8.921l0-0.007c0-0.026 0-0.057 0-0.088 0-2.559-0.848-4.919-2.279-6.816l0.021 0.029"></path>
</symbol>
<symbol id="icon-map" viewBox="0 0 32 32">
<path stroke-linejoin="miter" stroke-linecap="butt" stroke-miterlimit="4" stroke-width="1.0278" d="M15.932 0.514c-8.513 0-15.418 4.831-15.418 10.792 0 8.094 15.418 20.043 15.418 20.043s15.418-11.949 15.418-20.043c0-5.962-6.905-10.792-15.418-10.792zM15.932 15.161c-3.039 0-5.506-1.727-5.506-3.854s2.467-3.854 5.506-3.854 5.506 1.727 5.506 3.854-2.467 3.854-5.506 3.854z"></path>
</symbol>
<symbol id="icon-password" viewBox="0 0 32 32">
<path stroke-linejoin="miter" stroke-linecap="butt" stroke-miterlimit="4" stroke-width="1.0322" d="M15.999 2.82c3.843 0 7.1 2.417 7.652 5.667 0.146 0.561 0.648 0.969 1.245 0.969 0.080 0 0.158-0.007 0.234-0.021l-0.008 0.001c0.62-0.024 1.114-0.532 1.114-1.156 0-0.036-0.002-0.071-0.005-0.105l0 0.004c-0.723-4.623-5.524-7.97-10.969-7.638s-9.645 4.231-9.585 8.895v2.205h-3.871c-0.026-0.002-0.056-0.003-0.087-0.003-0.631 0-1.149 0.484-1.203 1.101l-0 0.005v17.639c0.054 0.622 0.572 1.105 1.203 1.105 0.031 0 0.061-0.001 0.091-0.003l-0.004 0h28.385c0.026 0.002 0.056 0.003 0.087 0.003 0.631 0 1.149-0.484 1.203-1.101l0-0.005v-17.639c-0.054-0.622-0.572-1.105-1.203-1.105-0.031 0-0.061 0.001-0.091 0.003l0.004-0h-21.934v-2.205c0-3.653 3.466-6.614 7.741-6.614zM17.289 23.567v1.299c-0.101 0.63-0.64 1.105-1.29 1.105s-1.19-0.475-1.289-1.098l-0.001-0.007v-1.301c-1.478-0.342-2.562-1.647-2.562-3.205 0-0.165 0.012-0.328 0.036-0.487l-0.002 0.018c0.451-1.601 1.898-2.754 3.615-2.754 0.072 0 0.143 0.002 0.214 0.006l-0.010-0c0.061-0.004 0.133-0.006 0.205-0.006 1.716 0 3.163 1.153 3.608 2.727l0.006 0.026c0.022 0.142 0.034 0.306 0.034 0.474 0 1.557-1.083 2.861-2.537 3.2l-0.022 0.004z"></path>
</symbol>
<symbol id="icon-settings" viewBox="0 0 32 32">
<path stroke-linejoin="miter" stroke-linecap="butt" stroke-miterlimit="4" stroke-width="1.0264" d="M28.853 15.999c0.001-1.676 1.044-3.109 2.515-3.686l0.027-0.009c-0.423-1.734-1.076-3.261-1.939-4.644l0.039 0.066c-0.474 0.216-1.028 0.342-1.611 0.345h-0.001c-0.002 0-0.004 0-0.006 0-2.183 0-3.953-1.77-3.953-3.953 0-0.583 0.126-1.137 0.353-1.635l-0.010 0.025c-1.315-0.826-2.84-1.481-4.465-1.883l-0.108-0.022c-0.587 1.497-2.020 2.538-3.695 2.538s-3.108-1.041-3.686-2.511l-0.009-0.027c-1.735 0.422-3.262 1.076-4.645 1.938l0.066-0.039c0.217 0.474 0.343 1.027 0.343 1.61 0 2.183-1.77 3.953-3.953 3.953-0.002 0-0.004 0-0.007 0h0c-0.003 0-0.007 0-0.011 0-0.58 0-1.13-0.127-1.625-0.355l0.024 0.010c-0.817 1.319-1.468 2.847-1.872 4.473l-0.023 0.11c1.498 0.587 2.54 2.020 2.54 3.697 0 1.673-1.038 3.104-2.505 3.684l-0.027 0.009c0.423 1.734 1.077 3.261 1.939 4.644l-0.039-0.066c0.472-0.215 1.025-0.341 1.606-0.341 2.184 0 3.955 1.771 3.955 3.955 0 0.581-0.125 1.133-0.351 1.63l0.010-0.025c1.317 0.824 2.843 1.478 4.469 1.881l0.109 0.023c0.586-1.495 2.016-2.535 3.689-2.535s3.103 1.040 3.68 2.508l0.009 0.027c1.735-0.422 3.262-1.076 4.645-1.938l-0.066 0.039c-0.213-0.47-0.337-1.019-0.337-1.597 0-2.186 1.772-3.959 3.959-3.959 0.578 0 1.128 0.124 1.623 0.347l-0.025-0.010c0.823-1.317 1.477-2.843 1.878-4.469l0.023-0.108c-1.494-0.594-2.531-2.025-2.535-3.699v-0.001zM16.071 22.401c-3.541-0.001-6.411-2.872-6.411-6.413s2.871-6.413 6.413-6.413 6.413 2.871 6.413 6.413v0c0 0 0 0.001 0 0.001 0 3.541-2.871 6.412-6.412 6.412-0.001 0-0.002 0-0.003 0h0z"></path>
</symbol>
<symbol id="icon-star" viewBox="0 0 32 32">
<path stroke-linejoin="miter" stroke-linecap="butt" stroke-miterlimit="4" stroke-width="0.9874" d="M15.975 25.13l9.154 5.815-2.429-10.961 8.087-7.374-10.65-0.951-4.162-10.338-4.162 10.337-10.65 0.952 8.087 7.374-2.429 10.961z"></path>
</symbol>
<symbol id="icon-add-plus" viewBox="0 0 32 32">
<path d="M22.507 16.853h-5.653v5.653h-1.707v-5.653h-5.653v-1.707h5.653v-5.653h1.707v5.653h5.653v1.707z"></path>
</symbol>
<symbol id="icon-calendar" viewBox="0 0 32 32">
<path d="M23.376 6.827h-2.24v-0.96c0-0.32-0.213-0.533-0.533-0.533s-0.533 0.213-0.533 0.533v0 0.96h-7.467v-0.96c0-0.32-0.213-0.533-0.533-0.533s-0.533 0.213-0.533 0.533v0.96h-2.347c-1.6 0-2.773 1.28-2.773 2.773v14.187c0 1.6 1.28 2.773 2.773 2.773h14.187c1.6 0 2.773-1.28 2.773-2.773v-14.080c0-1.6-1.173-2.88-2.773-2.88zM9.189 8h2.24v0.96c0 0.32 0.213 0.533 0.533 0.533s0.533-0.213 0.533-0.533v0-0.96h7.467v0.96c0 0.32 0.213 0.533 0.533 0.533s0.533-0.213 0.533-0.533v0-0.96h2.24c0.96 0 1.707 0.747 1.707 1.707v2.667h-17.493v-2.667c0-0.96 0.747-1.707 1.707-1.707zM23.376 25.493h-14.187c-0.96 0-1.707-0.747-1.707-1.707v0-10.347h17.6v10.347c0 0.96-0.747 1.707-1.707 1.707v0zM12.069 17.493c0 0.32-0.213 0.533-0.533 0.533s-0.533-0.213-0.533-0.533 0.213-0.533 0.533-0.533v0c0.32 0 0.533 0.213 0.533 0.533zM16.869 17.493c0 0.32-0.213 0.533-0.533 0.533s-0.533-0.213-0.533-0.533 0.213-0.533 0.533-0.533v0c0.32 0 0.533 0.213 0.533 0.533zM21.563 17.493c0 0.32-0.213 0.533-0.533 0.533s-0.533-0.213-0.533-0.533 0.213-0.533 0.533-0.533c0.32 0 0.533 0.213 0.533 0.533 0 0 0 0 0 0v0zM12.069 21.547c0 0.32-0.213 0.533-0.533 0.533s-0.533-0.213-0.533-0.533c0-0.32 0.213-0.533 0.533-0.533 0.32-0.107 0.533 0.213 0.533 0.533 0 0 0 0 0 0v0zM16.869 21.547c0 0.32-0.213 0.533-0.533 0.533s-0.533-0.213-0.533-0.533c0-0.32 0.213-0.533 0.533-0.533 0.32-0.107 0.533 0.213 0.533 0.533 0 0 0 0 0 0v0zM21.563 21.547c0 0.32-0.213 0.533-0.533 0.533s-0.533-0.213-0.533-0.533 0.213-0.533 0.533-0.533v0c0.32-0.107 0.533 0.213 0.533 0.533 0 0 0 0 0 0v0z"></path>
</symbol>
<symbol id="icon-city-state-sort" viewBox="0 0 32 32">
<path d="M17.393 9.555c-0.213 0.213-0.213 0.533 0 0.64l2.24 2.24h-8.427c-0.213 0-0.427 0.213-0.427 0.427s0.213 0.427 0.427 0.427h8.427l-2.24 2.24c-0.213 0.213-0.213 0.533 0 0.64 0.213 0.213 0.533 0.213 0.64 0 0 0 0 0 0 0l2.987-2.987c0 0 0.107-0.107 0.107-0.107 0-0.107 0-0.107 0-0.213s0-0.213-0.107-0.32l-2.987-2.987c-0.107-0.213-0.427-0.213-0.64 0 0.107 0 0.107 0 0 0z"></path>
<path d="M14.513 15.742c0.213 0.213 0.213 0.533 0 0.64l-2.24 2.24h8.427c0.213 0 0.427 0.213 0.427 0.427s-0.213 0.427-0.427 0.427h-8.427l2.24 2.24c0.213 0.213 0.213 0.533 0 0.64-0.213 0.213-0.533 0.213-0.64 0 0 0 0 0 0 0l-2.987-2.987c0 0-0.107-0.107-0.107-0.107 0-0.107 0-0.107 0-0.213s0-0.213 0.107-0.32l2.987-2.987c0.213-0.213 0.533-0.213 0.64 0 0 0 0 0 0 0z"></path>
</symbol>
<symbol id="icon-cross-into" viewBox="0 0 32 32">
<path d="M21.44 11.627l-1.067-1.067-4.373 4.373-4.373-4.373-1.067 1.067 4.373 4.373-4.373 4.373 1.067 1.067 4.373-4.373 4.373 4.373 1.067-1.067-4.373-4.373 4.373-4.373z"></path>
</symbol>
<symbol id="icon-dashboard-deselected" viewBox="0 0 32 32">
<path fill="#6283ac" style="fill: var(--color1, #6283ac)" d="M27.627 29.867h-23.253c-1.92 0-3.413-1.6-3.413-3.413v-20.907c-0.107-1.813 1.493-3.413 3.413-3.413h23.36c1.92 0 3.413 1.6 3.413 3.413v20.8c0 1.92-1.6 3.52-3.52 3.52zM4.373 4.053c-0.853 0-1.6 0.747-1.6 1.6v20.8c0 0.853 0.747 1.6 1.6 1.6h23.36c0.853 0 1.6-0.747 1.6-1.6v-20.907c0-0.853-0.747-1.6-1.6-1.6l-23.36 0.107z"></path>
<path fill="#6283ac" style="fill: var(--color1, #6283ac)" d="M30.187 9.411h-28.373c-0.533 0-0.96-0.427-0.96-0.96s0.427-0.96 0.96-0.96v0h28.373c0.533 0 0.96 0.427 0.96 0.96s-0.427 0.96-0.96 0.96v0z"></path>
<path fill="#6283ac" style="fill: var(--color1, #6283ac)" d="M6.619 28.56v-19.947c0-0.533 0.427-0.96 0.96-0.96s0.96 0.427 0.96 0.96v0 19.947c0 0.533-0.427 0.96-0.96 0.96s-0.96-0.427-0.96-0.96v0z"></path>
</symbol>
<symbol id="icon-dashboard-selected" viewBox="0 0 32 32">
<path d="M27.627 29.867h-23.253c-1.92 0-3.413-1.6-3.413-3.413v-20.907c-0.107-1.813 1.493-3.413 3.413-3.413h23.36c1.92 0 3.413 1.6 3.413 3.413v20.8c0 1.92-1.6 3.52-3.52 3.52zM4.373 4.053c-0.853 0-1.6 0.747-1.6 1.6v20.8c0 0.853 0.747 1.6 1.6 1.6h23.36c0.853 0 1.6-0.747 1.6-1.6v-20.907c0-0.853-0.747-1.6-1.6-1.6l-23.36 0.107z"></path>
<path d="M30.187 9.411h-28.373c-0.533 0-0.96-0.427-0.96-0.96s0.427-0.96 0.96-0.96v0h28.373c0.533 0 0.96 0.427 0.96 0.96s-0.427 0.96-0.96 0.96v0z"></path>
<path d="M6.619 28.56v-19.947c0-0.533 0.427-0.96 0.96-0.96s0.96 0.427 0.96 0.96v0 19.947c0 0.533-0.427 0.96-0.96 0.96s-0.96-0.427-0.96-0.96v0z"></path>
</symbol>
<symbol id="icon-delete" viewBox="0 0 32 32">
<path d="M7.147 9.6l2.88 19.2h12.053l2.88-19.2h-17.813zM5.867 7.467h20.267c0.64 0 1.067 0.427 1.067 1.067l-3.2 21.333c0 0.64-0.427 1.067-1.067 1.067h-13.867c-0.64 0-1.067-0.427-1.067-1.067l-3.2-21.333c0-0.64 0.427-1.067 1.067-1.067z"></path>
<path d="M5.653 6.4l-0.427 1.067h21.44l-0.32-1.067h-20.693zM4.8 4.267h22.4c0.64 0 1.067 0.427 1.067 1.067l1.067 3.2c0 0.64-0.427 1.067-1.067 1.067h-24.533c-0.64 0-1.067-0.427-1.067-1.067l1.067-3.2c0-0.64 0.427-1.067 1.067-1.067z"></path>
<path fill="none" stroke="#000" style="stroke: var(--color2, #000)" stroke-linejoin="miter" stroke-linecap="butt" stroke-miterlimit="4" stroke-width="2.1333" d="M13.333 2.133h6.4v3.2h-6.4v-3.2z"></path>
<path d="M15.467 10.667h1.067v17.067h-1.067v-17.067z"></path>
<path d="M10.133 10.667h1.067l2.133 17.067h-1.067l-2.133-17.067z"></path>
<path d="M20.8 10.667h1.067l-2.133 17.067h-1.067l2.133-17.067z"></path>
</symbol>
<symbol id="icon-down-arrow-double" viewBox="0 0 32 32">
<path stroke-linejoin="round" stroke-linecap="round" stroke-miterlimit="4" stroke-width="1.0667" d="M11.954 16.221l4.053 3.947 3.947-3.947"></path>
<path stroke-linejoin="round" stroke-linecap="round" stroke-miterlimit="4" stroke-width="1.0667" d="M11.954 11.741l4.053 4.053 3.947-4.053"></path>
</symbol>
<symbol id="icon-download-icon" viewBox="0 0 32 32">
<path stroke-linejoin="round" stroke-linecap="round" stroke-miterlimit="4" stroke-width="1.6" d="M23.947 18.613v3.52c0 0.96-0.747 1.813-1.813 1.813h-12.373c-0.96 0-1.813-0.747-1.813-1.813v-3.52"></path>
<path stroke-linejoin="round" stroke-linecap="round" stroke-miterlimit="4" stroke-width="1.6" d="M11.573 14.24l4.373 4.373 4.373-4.373"></path>
<path stroke-linejoin="round" stroke-linecap="round" stroke-miterlimit="4" stroke-width="1.6" d="M15.947 18.613v-10.667"></path>
</symbol>
<symbol id="icon-down-polygon" viewBox="0 0 32 32">
<path fill="#8895ad" style="fill: var(--color3, #8895ad)" d="M16 18.667l-4.8-5.333h9.6l-4.8 5.333z"></path>
</symbol>
<symbol id="icon-drop-down-arrow" viewBox="0 0 32 32">
<path d="M23.573 10.56l-7.573 7.68-7.68-7.573-1.6 1.6 9.387 9.173 9.173-9.387-1.707-1.493z"></path>
</symbol>
<symbol id="icon-awesome-edit" viewBox="0 0 32 32">
<path stroke-linejoin="round" stroke-linecap="round" stroke-miterlimit="4" stroke-width="2.1333" d="M14.72 6.167h-8.107c-1.28 0-2.347 1.173-2.24 2.453v17.387c0 1.28 0.96 2.453 2.347 2.453h16.107c1.28-0.107 2.347-1.173 2.347-2.453v-8.747"></path>
<path stroke-linejoin="round" stroke-linecap="round" stroke-miterlimit="4" stroke-width="2.1333" d="M23.147 4.247c1.067-1.067 2.667-1.067 3.733 0s1.067 2.667 0 3.733l-11.733 11.733-4.907 1.28 1.28-4.907 11.627-11.84z"></path>
</symbol>
<symbol id="icon-end-close-cross" viewBox="0 0 32 32">
<path d="M21.44 11.627l-1.067-1.067-4.373 4.373-4.373-4.373-1.067 1.067 4.373 4.373-4.373 4.373 1.067 1.067 4.373-4.373 4.373 4.373 1.067-1.067-4.373-4.373 4.373-4.373z"></path>
</symbol>
<symbol id="icon-filter" viewBox="0 0 32 32">
<path fill="#fff" style="fill: var(--color4, #fff)" stroke-linejoin="miter" stroke-linecap="butt" stroke-miterlimit="4" stroke-width="1.0315" stroke="#000" d="M30.047 0.516h-28.058c-0.8 0.003-1.447 0.652-1.447 1.452 0 0.399 0.161 0.761 0.422 1.023l11.191 11.187v12.457c0 0.489 0.243 0.922 0.614 1.184l0.005 0.003 4.829 3.378c0.232 0.163 0.52 0.261 0.83 0.261 0.799 0 1.448-0.645 1.453-1.443v-15.852l11.192-11.187c0.253-0.261 0.41-0.618 0.41-1.011 0-0.798-0.644-1.446-1.441-1.452h-0.001z"></path>
</symbol>
<symbol id="icon-green-flag" viewBox="0 0 32 32">
<path fill="#86cf86" style="fill: var(--color5, #86cf86)" d="M0.96 1.28v29.547h5.333v-8.427h24.853l-11.093-10.24 10.987-10.88h-30.080z"></path>
</symbol>
<symbol id="icon-grey-flag" viewBox="0 0 32 32">
<path fill="#ccd1da" style="fill: var(--color6, #ccd1da)" d="M0.96 1.28v29.547h5.333v-8.427h24.853l-11.093-10.24 10.987-10.88h-30.080z"></path>
</symbol>
<symbol id="icon-help-icon" viewBox="0 0 32 32">
<path d="M17.493 23.253c0 0.825-0.669 1.493-1.493 1.493s-1.493-0.669-1.493-1.493c0-0.825 0.669-1.493 1.493-1.493s1.493 0.669 1.493 1.493z"></path>
<path d="M16 0.853c-8.32 0-15.147 6.827-15.147 15.147s6.827 15.147 15.147 15.147c8.32 0 15.147-6.72 15.147-15.147 0-8.32-6.827-15.147-15.147-15.147 0 0 0 0 0 0zM16 29.227c-7.253 0-13.227-5.973-13.227-13.227s5.973-13.227 13.227-13.227 13.227 5.973 13.227 13.227c0 0 0 0 0 0 0 7.253-5.973 13.227-13.227 13.227 0 0 0 0 0 0z"></path>
<path d="M16 8.427c-2.56 0-4.693 2.133-4.693 4.693 0 0.64 0.533 1.173 1.173 1.173s1.173-0.533 1.173-1.173c0-1.28 1.067-2.347 2.347-2.347s2.347 1.067 2.347 2.347c0 1.28-1.067 2.347-2.347 2.347-0.64 0-1.173 0.533-1.173 1.173v0 2.987c0 0.64 0.533 1.173 1.173 1.173s1.173-0.533 1.173-1.173v-1.92c2.56-0.64 4.053-3.2 3.413-5.76-0.533-2.027-2.453-3.52-4.587-3.52v0z"></path>
</symbol>
<symbol id="icon-location1" viewBox="0 0 32 32">
<path fill="#4a5261" style="fill: var(--color7, #4a5261)" d="M16 2.987c-5.013 0-9.067 4.053-9.067 9.067 0 0 0 0 0 0 0 6.827 9.067 16.96 9.067 16.96s9.067-10.133 9.067-16.96c0-5.013-4.053-9.067-9.067-9.067 0 0 0 0 0 0zM16 15.36c-1.813 0-3.307-1.493-3.307-3.307s1.493-3.307 3.307-3.307c1.813 0 3.307 1.493 3.307 3.307s-1.493 3.307-3.307 3.307z"></path>
</symbol>
<symbol id="icon-notification-bell" viewBox="0 0 32 32">
<path d="M26.56 24.213h-1.067v-9.173c0-4.267-2.773-8-6.827-9.173 0.747-1.493 0.213-3.307-1.28-4.053s-3.307-0.213-4.053 1.28c-0.427 0.853-0.427 1.92 0 2.773-4.053 1.173-6.827 4.907-6.827 9.173v9.173h-1.067c-0.533 0-0.96 0.427-1.067 0.96 0 0.533 0.427 0.96 0.96 1.067 0 0 0.107 0 0.107 0h6.827v0.747c0 2.027 1.707 3.627 3.733 3.52 1.92 0 3.52-1.6 3.52-3.52v-0.747h6.933c0.533 0 0.96-0.427 1.067-0.96s-0.32-0.96-0.96-1.067c0 0 0 0 0 0v0zM14.827 4.48c0-0.533 0.427-1.067 1.067-1.067 0.533 0 1.067 0.427 1.067 1.067 0 0.533-0.32 0.96-0.853 1.067-0.107 0-0.107 0-0.213 0s-0.107 0-0.213 0c-0.533-0.107-0.853-0.533-0.853-1.067v0zM8.32 15.147c0-4.053 3.2-7.36 7.253-7.573 0.213 0 0.427 0 0.64 0 4.053 0.107 7.253 3.413 7.253 7.573v9.173h-15.147v-9.173zM17.6 26.987c0 0.96-0.64 1.707-1.6 1.707s-1.707-0.64-1.707-1.6c0 0 0-0.107 0-0.107v-0.747h3.307v0.747z"></path>
</symbol>
<symbol id="icon-on-board" viewBox="0 0 32 32">
<path fill="#fff" style="fill: var(--color4, #fff); stroke: var(--color4, #fff)" stroke="#fff" stroke-linejoin="miter" stroke-linecap="butt" stroke-miterlimit="4" stroke-width="0.5246" d="M25.949 18.203c-0 0-0.001 0-0.001 0-0.101 0-0.193-0.034-0.268-0.090l0.001 0.001-7.383-5.56-2.491 2.518c-0.37 0.384-0.889 0.622-1.463 0.622-0.501 0-0.959-0.181-1.313-0.482l0.003 0.002c-0.454-0.378-0.743-0.942-0.748-1.573v-0.001c-0-0.004-0-0.009-0-0.013 0-0.598 0.267-1.134 0.689-1.494l0.003-0.002 2.999-3.224c0.013-0.014 0.028-0.028 0.042-0.040l0.001-0.001c0.126-0.149 0.268-0.302 0.42-0.455l0.040-0.043c0.201-0.202 0.412-0.392 0.635-0.57l0.015-0.011c1.053-0.861 2.413-1.383 3.895-1.383 0.091 0 0.182 0.002 0.273 0.006l-0.013-0c0.117 0.005 0.221 0.055 0.297 0.133l0 0 5.77 5.913c0.072 0.074 0.119 0.172 0.126 0.282l0 0.001c0.011 0.168 0.017 0.365 0.017 0.563s-0.006 0.395-0.018 0.59l0.001-0.027c-0.086 1.513-0.498 2.913-1.166 4.154l0.026-0.053c-0.060 0.114-0.166 0.198-0.293 0.227l-0.003 0.001c-0.029 0.006-0.063 0.009-0.098 0.009h-0zM18.255 11.516c0 0 0 0 0 0 0.101 0 0.194 0.034 0.268 0.090l-0.001-0.001 7.263 5.471c0.45-0.956 0.741-2.070 0.807-3.243l0.001-0.024c0.017-0.286 0.018-0.574 0.006-0.856l-5.531-5.665c-0.025-0-0.055-0.001-0.084-0.001-1.26 0-2.414 0.45-3.311 1.199l0.008-0.007c-0.205 0.163-0.388 0.327-0.561 0.501l-0 0-0.038 0.041c-0.164 0.167-0.307 0.323-0.432 0.474-0.023 0.028-0.050 0.053-0.079 0.075l-0.001 0.001-2.979 3.199c-0.256 0.203-0.419 0.514-0.42 0.863v0c0.004 0.36 0.169 0.681 0.426 0.894l0.002 0.002c0.199 0.169 0.459 0.271 0.743 0.271 0.326 0 0.62-0.135 0.83-0.353l0-0 2.767-2.801c0.080-0.081 0.192-0.131 0.315-0.131v0z"></path>
<path fill="#fff" style="fill: var(--color4, #fff); stroke: var(--color2, #000)" stroke="#000" stroke-linejoin="miter" stroke-linecap="butt" stroke-miterlimit="4" stroke-width="0.5246" d="M29.166 13.105c-0.001 0-0.002 0-0.003 0-0.759 0-1.445-0.314-1.935-0.82l-0.001-0.001-6.826-6.992c-0.493-0.509-0.797-1.204-0.797-1.97s0.304-1.461 0.798-1.971l-0.001 0.001c0.491-0.508 1.179-0.823 1.941-0.823s1.449 0.315 1.94 0.823l0.001 0.001 6.827 6.989c0.493 0.509 0.797 1.204 0.797 1.97s-0.304 1.461-0.798 1.971l0.001-0.001c-0.49 0.506-1.176 0.82-1.935 0.82-0.001 0-0.002 0-0.004 0h0zM22.339 1.424c-0 0-0 0-0 0-0.511 0-0.973 0.212-1.301 0.553l-0.001 0.001c-0.337 0.349-0.545 0.824-0.545 1.348s0.208 0.999 0.545 1.349l-0.001-0.001 6.827 6.989c0.334 0.331 0.795 0.536 1.302 0.536s0.968-0.204 1.303-0.536l-0 0c0.337-0.349 0.545-0.824 0.545-1.348s-0.208-1-0.546-1.349l0 0.001-6.827-6.989c-0.33-0.342-0.792-0.554-1.303-0.554v0zM20.719 1.666h0.006z"></path>
<path fill="#fff" style="fill: var(--color4, #fff); stroke: var(--color2, #000)" stroke="#000" stroke-linejoin="miter" stroke-linecap="butt" stroke-miterlimit="4" stroke-width="0.5246" d="M3.168 12.835c-0.001 0-0.002 0-0.003 0-0.759 0-1.445-0.314-1.935-0.82l-0.001-0.001c-0.493-0.509-0.797-1.204-0.797-1.97s0.304-1.461 0.798-1.971l-0.001 0.001 6.827-6.989c0.492-0.508 1.179-0.823 1.941-0.823s1.449 0.315 1.94 0.823l0.001 0.001c0.493 0.509 0.797 1.204 0.797 1.97s-0.304 1.461-0.798 1.971l0.001-0.001-6.827 6.989c-0.49 0.506-1.176 0.82-1.935 0.82-0.003 0-0.006 0-0.009 0h0zM9.995 1.154c-0 0-0 0-0 0-0.511 0-0.973 0.212-1.301 0.553l-0.001 0.001-6.827 6.988c-0.337 0.349-0.545 0.824-0.545 1.348s0.208 0.999 0.545 1.349l-0.001-0.001c0.334 0.331 0.795 0.536 1.303 0.536s0.968-0.204 1.303-0.536l-0 0 6.827-6.989c0.337-0.349 0.545-0.824 0.545-1.348s-0.208-1-0.546-1.349l0.001 0.001c-0.33-0.341-0.792-0.553-1.303-0.553 0 0 0 0-0 0v0z"></path>
<path fill="#fff" style="fill: var(--color4, #fff); stroke: var(--color2, #000)" stroke="#000" stroke-linejoin="miter" stroke-linecap="butt" stroke-miterlimit="4" stroke-width="0.5246" d="M6.797 22.931c-0.001 0-0.002 0-0.002 0-0.455 0-0.865-0.188-1.159-0.491l-0-0-0.245-0.252c-0.293-0.304-0.474-0.718-0.474-1.175s0.181-0.871 0.474-1.175l-0 0 1.533-1.574c0.299-0.293 0.709-0.474 1.161-0.474s0.862 0.181 1.162 0.475l-0-0 0.244 0.251c0.294 0.304 0.474 0.718 0.474 1.175s-0.181 0.871-0.475 1.176l0-0-1.531 1.574c-0.294 0.303-0.706 0.491-1.161 0.491-0.001 0-0.001 0-0.002 0h0zM8.083 18.669c-0.206 0.001-0.392 0.087-0.524 0.224l-0 0-1.532 1.568c-0.138 0.143-0.223 0.338-0.223 0.553s0.085 0.41 0.223 0.553l-0-0 0.245 0.252c0.135 0.133 0.32 0.216 0.525 0.216s0.39-0.082 0.525-0.216l-0 0 1.531-1.574c0.138-0.143 0.224-0.338 0.224-0.553s-0.085-0.41-0.224-0.554l0 0-0.244-0.25c-0.132-0.138-0.318-0.224-0.524-0.225h-0zM7.243 18.581h0.006z"></path>
<path fill="#fff" style="fill: var(--color4, #fff); stroke: var(--color2, #000)" stroke="#000" stroke-linejoin="miter" stroke-linecap="butt" stroke-miterlimit="4" stroke-width="0.5246" d="M8.739 25.295c-0.001 0-0.002 0-0.002 0-0.455 0-0.865-0.188-1.159-0.491l-0-0-0.244-0.251c-0.294-0.304-0.474-0.718-0.474-1.175s0.181-0.871 0.475-1.176l-0 0 1.531-1.574c0.299-0.294 0.709-0.475 1.161-0.475s0.863 0.181 1.162 0.475l-0-0 0.245 0.252c0.293 0.304 0.474 0.718 0.474 1.175s-0.181 0.871-0.474 1.175l0-0-1.532 1.574c-0.294 0.303-0.704 0.491-1.159 0.491-0.001 0-0.002 0-0.002 0h0zM9.5 21.257l-1.531 1.574c-0.138 0.143-0.224 0.338-0.224 0.553s0.085 0.41 0.224 0.554l-0-0 0.244 0.25c0.135 0.133 0.32 0.216 0.525 0.216s0.39-0.082 0.525-0.216l-0 0 1.532-1.568c0.138-0.143 0.223-0.338 0.223-0.553s-0.085-0.41-0.223-0.553l0 0-0.245-0.252c-0.135-0.133-0.32-0.216-0.525-0.216s-0.39 0.082-0.525 0.216l0-0z"></path>
<path fill="#fff" style="fill: var(--color4, #fff); stroke: var(--color2, #000)" stroke="#000" stroke-linejoin="miter" stroke-linecap="butt" stroke-miterlimit="4" stroke-width="0.5246" d="M10.729 28.233c-0.001 0-0.002 0-0.002 0-0.455 0-0.865-0.188-1.159-0.491l-0-0-0.245-0.252c-0.293-0.304-0.474-0.718-0.474-1.175s0.181-0.871 0.475-1.175l-0 0 1.531-1.574c0.299-0.294 0.709-0.475 1.161-0.475s0.863 0.181 1.162 0.475l-0-0 0.245 0.252c0.293 0.304 0.474 0.718 0.474 1.175s-0.181 0.871-0.475 1.175l0-0-1.532 1.574c-0.294 0.303-0.704 0.491-1.159 0.491-0.001 0-0.002 0-0.004 0h0zM11.489 24.193l-1.531 1.574c-0.138 0.143-0.224 0.338-0.224 0.553s0.085 0.41 0.224 0.553l-0-0 0.245 0.252c0.135 0.133 0.32 0.216 0.525 0.216s0.39-0.082 0.525-0.216l-0 0 1.532-1.574c0.138-0.143 0.223-0.338 0.223-0.553s-0.085-0.41-0.223-0.553l0 0-0.245-0.252c-0.135-0.133-0.32-0.216-0.525-0.216s-0.39 0.082-0.525 0.216l0-0z"></path>
<path fill="#fff" style="fill: var(--color4, #fff); stroke: var(--color2, #000)" stroke="#000" stroke-linejoin="miter" stroke-linecap="butt" stroke-miterlimit="4" stroke-width="0.5246" d="M12.666 30.212c-0.001 0-0.002 0-0.002 0-0.455 0-0.865-0.188-1.159-0.491l-0-0-0.245-0.251c-0.294-0.304-0.474-0.718-0.474-1.175s0.181-0.871 0.475-1.176l-0 0 1.532-1.574c0.299-0.294 0.709-0.475 1.162-0.475s0.863 0.181 1.162 0.476l-0-0 0.245 0.252c0.293 0.304 0.474 0.718 0.474 1.175s-0.181 0.871-0.474 1.175l0-0-1.532 1.574c-0.294 0.303-0.705 0.491-1.16 0.491-0.001 0-0.002 0-0.003 0h0zM13.426 26.173l-1.532 1.574c-0.138 0.143-0.223 0.338-0.223 0.553s0.085 0.41 0.224 0.554l-0-0 0.244 0.25c0.135 0.133 0.32 0.216 0.525 0.216s0.39-0.082 0.525-0.216l-0 0 1.532-1.568c0.138-0.143 0.223-0.338 0.223-0.553s-0.085-0.41-0.223-0.553l0 0-0.245-0.252c-0.135-0.133-0.32-0.216-0.525-0.216s-0.39 0.082-0.525 0.216l0-0z"></path>
<path fill="#fff" style="fill: var(--color4, #fff); stroke: var(--color2, #000)" stroke="#000" stroke-linejoin="miter" stroke-linecap="butt" stroke-miterlimit="4" stroke-width="0.5246" d="M12.139 26.568c-0.244-0.002-0.441-0.2-0.441-0.445 0-0.121 0.048-0.23 0.126-0.311l-0 0 0.97-0.994c0.082-0.091 0.2-0.148 0.332-0.148 0.246 0 0.445 0.199 0.445 0.445 0 0.128-0.054 0.243-0.14 0.324l-0 0-0.97 0.994c-0.081 0.083-0.193 0.134-0.318 0.134-0.001 0-0.002 0-0.004 0h0z"></path>
<path fill="#fff" style="fill: var(--color4, #fff); stroke: var(--color2, #000)" stroke="#000" stroke-linejoin="miter" stroke-linecap="butt" stroke-miterlimit="4" stroke-width="0.5246" d="M17.59 31.726c-0.008 0-0.016 0-0.025 0-0.872 0-1.64-0.445-2.089-1.12l-0.006-0.009-1.619-1.521c-0.085-0.081-0.137-0.195-0.137-0.322 0-0.12 0.047-0.228 0.124-0.308l-0 0 0.888-0.909c0.138-0.143 0.223-0.338 0.223-0.553s-0.085-0.41-0.223-0.553l0 0-0.245-0.252c-0.135-0.134-0.32-0.216-0.525-0.216s-0.39 0.082-0.525 0.216l0-0c-0.082 0.091-0.2 0.148-0.332 0.148-0.246 0-0.445-0.199-0.445-0.445 0-0.128 0.054-0.243 0.14-0.324l0-0c0.138-0.143 0.223-0.338 0.223-0.553s-0.085-0.41-0.223-0.553l0 0-0.245-0.252c-0.135-0.134-0.32-0.216-0.525-0.216s-0.39 0.082-0.525 0.216l0-0-0.064 0.066c-0.081 0.086-0.196 0.139-0.323 0.139-0.246 0-0.445-0.199-0.445-0.445 0-0.123 0.050-0.235 0.131-0.316l0-0c0.138-0.143 0.222-0.337 0.222-0.552s-0.085-0.409-0.222-0.552l0 0-0.245-0.252c-0.135-0.134-0.32-0.216-0.525-0.216s-0.39 0.082-0.525 0.216l0-0-0.914 0.935c-0.079 0.083-0.191 0.134-0.314 0.134-0.009 0-0.018-0-0.027-0.001l0.001 0c-0.132-0.007-0.247-0.070-0.325-0.165l-0.001-0.001c-0.063-0.078-0.101-0.177-0.101-0.286 0-0.121 0.047-0.23 0.123-0.312l-0 0 0.913-0.935c0.138-0.143 0.223-0.338 0.223-0.553s-0.085-0.41-0.224-0.554l0 0-0.244-0.25c-0.135-0.134-0.32-0.216-0.525-0.216s-0.39 0.082-0.525 0.216l0-0-0.657 0.672c-0.081 0.082-0.193 0.134-0.318 0.134-0.163 0-0.306-0.088-0.383-0.218l-0.001-0.002c-0.761-1.3-1.21-2.862-1.21-4.529 0-0.442 0.032-0.876 0.093-1.301l-0.006 0.049c0.014-0.098 0.058-0.184 0.123-0.25l-0 0 5.357-5.487c0.073-0.075 0.171-0.124 0.281-0.133l0.002-0c0.156-0.013 0.29-0.022 0.426-0.025h0.122c0.014-0 0.031-0 0.048-0 1.947 0 3.694 0.853 4.889 2.206l0.006 0.007c0.248-0.264 0.511-0.506 0.79-0.73l0.015-0.012c1.053-0.862 2.413-1.384 3.895-1.384 0.091 0 0.181 0.002 0.27 0.006l-0.013-0c0.117 0.005 0.221 0.055 0.297 0.133l0 0 5.77 5.913c0.072 0.074 0.119 0.172 0.126 0.282l0 0.001c0.011 0.168 0.017 0.365 0.017 0.563s-0.006 0.395-0.018 0.59l0.001-0.027c-0.080 1.424-0.449 2.743-1.049 3.927l0.026-0.056c0.157 0.267 0.271 0.58 0.322 0.913l0.002 0.015c0.027 0.14 0.042 0.3 0.042 0.464 0 1.004-0.574 1.874-1.411 2.301l-0.015 0.007c-0.205 0.092-0.443 0.156-0.692 0.179l-0.009 0.001c0.038 0.161 0.059 0.346 0.059 0.536 0 0.685-0.28 1.304-0.732 1.749l-0 0c-0.363 0.271-0.821 0.435-1.316 0.435-0.219 0-0.431-0.032-0.631-0.091l0.016 0.004c0.010 0.080 0.016 0.173 0.016 0.268 0 0.697-0.309 1.322-0.797 1.745l-0.003 0.002c-0.299 0.202-0.668 0.323-1.065 0.323-0.083 0-0.165-0.005-0.246-0.016l0.010 0.001c-0 0.399-0.103 0.773-0.284 1.098l0.006-0.012c-0.307 0.526-0.802 0.914-1.391 1.075l-0.016 0.004c-0.22 0.065-0.472 0.104-0.734 0.105h-0.001zM14.789 28.737l1.327 1.247c0.026 0.025 0.049 0.053 0.069 0.083l0.001 0.002c0.148 0.233 0.345 0.422 0.577 0.556l0.008 0.004c0.237 0.131 0.52 0.208 0.82 0.208 0.172 0 0.339-0.025 0.496-0.072l-0.012 0.003c0.374-0.097 0.682-0.334 0.87-0.649l0.004-0.006c0.106-0.203 0.168-0.443 0.168-0.698 0-0.148-0.021-0.29-0.060-0.425l0.003 0.011c-0.008-0.032-0.013-0.068-0.013-0.105 0-0.245 0.199-0.444 0.444-0.444 0.052 0 0.102 0.009 0.148 0.025l-0.003-0.001c0.156 0.069 0.337 0.109 0.528 0.109 0.226 0 0.439-0.056 0.626-0.156l-0.007 0.003c0.275-0.312 0.443-0.725 0.443-1.177 0-0.249-0.051-0.486-0.143-0.702l0.004 0.012c-0.014-0.042-0.022-0.090-0.022-0.14 0-0.246 0.199-0.445 0.445-0.445 0.082 0 0.159 0.022 0.225 0.061l-0.002-0.001c0.254 0.177 0.569 0.283 0.908 0.283 0.299 0 0.579-0.082 0.819-0.225l-0.007 0.004c0.258-0.307 0.415-0.707 0.415-1.144 0-0.28-0.065-0.545-0.18-0.781l0.005 0.011c-0.019-0.048-0.030-0.103-0.030-0.161 0-0.245 0.199-0.444 0.444-0.444 0.032 0 0.062 0.003 0.092 0.010l-0.003-0c0.087 0.019 0.188 0.030 0.291 0.030 0.201 0 0.392-0.042 0.565-0.118l-0.009 0.004c0.535-0.296 0.892-0.857 0.892-1.501 0-0.115-0.011-0.228-0.033-0.337l0.002 0.011c-0.045-0.295-0.156-0.558-0.318-0.782l0.004 0.005c-0.051-0.071-0.081-0.16-0.081-0.256 0-0.075 0.019-0.147 0.052-0.209l-0.001 0.002c0.586-1.084 0.961-2.36 1.039-3.716l0.001-0.024c0.017-0.286 0.018-0.574 0.006-0.856l-5.529-5.665c-0.025-0-0.055-0.001-0.085-0.001-1.259 0-2.414 0.451-3.31 1.199l0.008-0.007c-0.382 0.307-0.72 0.64-1.021 1.005l-0.009 0.012c-0.085 0.099-0.21 0.162-0.35 0.162-0.002 0-0.003 0-0.005-0h0c-0.141-0.004-0.266-0.073-0.344-0.178l-0.001-0.001c-1.039-1.388-2.679-2.277-4.527-2.277-0.016 0-0.031 0-0.047 0h-0.103c-0.011-0-0.025-0.001-0.038-0.001-0.060 0-0.12 0.004-0.178 0.012l0.007-0.001-5.141 5.26c-0.038 0.296-0.059 0.638-0.059 0.986 0 1.295 0.3 2.52 0.834 3.61l-0.021-0.048 0.232-0.237c0.299-0.293 0.709-0.474 1.161-0.474s0.862 0.181 1.161 0.475l-0-0 0.244 0.251c0.294 0.302 0.475 0.715 0.475 1.17 0 0.027-0.001 0.054-0.002 0.080l0-0.004c0.017-0.001 0.036-0.001 0.056-0.001 0.457 0 0.87 0.188 1.166 0.491l0.246 0.252c0.294 0.302 0.475 0.715 0.475 1.17 0 0.001 0 0.001 0 0.002v-0c0.033-0.002 0.072-0.004 0.111-0.004 0.457 0 0.87 0.188 1.167 0.49l0 0 0.245 0.252c0.294 0.302 0.476 0.715 0.476 1.171 0 0.023-0 0.047-0.001 0.070l0-0.003c0.017-0.001 0.037-0.001 0.057-0.001 0.454 0 0.864 0.189 1.156 0.491l0 0 0.245 0.252c0.293 0.304 0.474 0.718 0.474 1.175s-0.181 0.871-0.474 1.175l0-0z"></path>
</symbol>
<symbol id="icon-onboard-deselected" viewBox="0 0 32 32">
<path stroke-linejoin="miter" stroke-linecap="butt" stroke-miterlimit="4" stroke-width="0.5246" d="M25.968 18.207c-0 0-0.001 0-0.001 0-0.101 0-0.193-0.034-0.268-0.090l0.001 0.001-7.383-5.561-2.491 2.518c-0.37 0.384-0.889 0.622-1.463 0.622-0.501 0-0.959-0.181-1.313-0.482l0.003 0.002c-0.454-0.378-0.743-0.942-0.748-1.573v-0.001c-0-0.004-0-0.009-0-0.013 0-0.598 0.267-1.134 0.689-1.494l0.003-0.002 3-3.224c0.013-0.014 0.027-0.028 0.042-0.040l0.001-0.001c0.126-0.149 0.268-0.302 0.42-0.455l0.040-0.043c0.201-0.202 0.412-0.392 0.635-0.57l0.015-0.011c1.053-0.861 2.413-1.383 3.895-1.383 0.091 0 0.182 0.002 0.273 0.006l-0.013-0c0.117 0.005 0.221 0.055 0.297 0.133l0 0 5.77 5.913c0.072 0.074 0.119 0.172 0.126 0.282l0 0.001c0.011 0.168 0.017 0.365 0.017 0.563s-0.006 0.395-0.018 0.59l0.001-0.027c-0.086 1.513-0.498 2.913-1.166 4.154l0.026-0.053c-0.060 0.114-0.166 0.198-0.293 0.227l-0.003 0.001c-0.029 0.006-0.063 0.009-0.098 0.009h-0zM18.275 11.521c0 0 0 0 0 0 0.101 0 0.194 0.034 0.268 0.090l-0.001-0.001 7.263 5.471c0.45-0.956 0.741-2.070 0.807-3.244l0.001-0.024c0.017-0.286 0.018-0.574 0.006-0.856l-5.531-5.666c-0.025-0-0.055-0.001-0.084-0.001-1.26 0-2.415 0.451-3.312 1.199l0.008-0.007c-0.205 0.163-0.388 0.327-0.561 0.501l-0 0-0.038 0.041c-0.164 0.167-0.307 0.323-0.432 0.474-0.023 0.028-0.050 0.053-0.079 0.075l-0.001 0.001-2.979 3.199c-0.256 0.203-0.419 0.514-0.42 0.863v0c0.004 0.36 0.169 0.681 0.426 0.894l0.002 0.002c0.199 0.169 0.459 0.271 0.743 0.271 0.326 0 0.62-0.135 0.83-0.353l0-0 2.767-2.801c0.080-0.081 0.192-0.131 0.315-0.131v0z"></path>
<path stroke-linejoin="miter" stroke-linecap="butt" stroke-miterlimit="4" stroke-width="0.5246" d="M29.186 13.108c-0.001 0-0.002 0-0.003 0-0.759 0-1.445-0.314-1.935-0.82l-0.001-0.001-6.826-6.992c-0.493-0.509-0.797-1.204-0.797-1.97s0.304-1.461 0.798-1.971l-0.001 0.001c0.491-0.508 1.179-0.823 1.941-0.823s1.449 0.315 1.94 0.823l0.001 0.001 6.827 6.99c0.493 0.509 0.797 1.204 0.797 1.97s-0.304 1.461-0.798 1.971l0.001-0.001c-0.49 0.506-1.176 0.82-1.936 0.82-0.001 0-0.002 0-0.004 0h0zM22.359 1.427c-0 0-0 0-0 0-0.511 0-0.973 0.212-1.301 0.553l-0.001 0.001c-0.337 0.349-0.545 0.824-0.545 1.348s0.208 1 0.545 1.349l-0.001-0.001 6.827 6.99c0.334 0.331 0.795 0.536 1.303 0.536s0.968-0.205 1.303-0.536l-0 0c0.337-0.349 0.545-0.824 0.545-1.348s-0.208-1-0.546-1.349l0 0.001-6.827-6.99c-0.33-0.342-0.792-0.554-1.303-0.554v0zM20.738 1.669h0.006z"></path>
<path stroke-linejoin="miter" stroke-linecap="butt" stroke-miterlimit="4" stroke-width="0.5246" d="M3.178 12.839c-0.001 0-0.002 0-0.003 0-0.759 0-1.445-0.314-1.935-0.82l-0.001-0.001c-0.493-0.509-0.797-1.204-0.797-1.97s0.304-1.461 0.798-1.971l-0.001 0.001 6.827-6.99c0.492-0.508 1.179-0.823 1.941-0.823s1.449 0.315 1.94 0.823l0.001 0.001c0.493 0.509 0.797 1.204 0.797 1.97s-0.304 1.461-0.798 1.971l0.001-0.001-6.827 6.99c-0.49 0.506-1.176 0.82-1.935 0.82-0.003 0-0.006 0-0.009 0h0zM10.005 1.157c-0 0-0 0-0 0-0.511 0-0.973 0.212-1.301 0.553l-0.001 0.001-6.827 6.989c-0.337 0.349-0.545 0.824-0.545 1.348s0.208 1 0.545 1.349l-0.001-0.001c0.334 0.331 0.795 0.536 1.303 0.536s0.968-0.205 1.303-0.536l-0 0 6.827-6.99c0.337-0.349 0.545-0.824 0.545-1.348s-0.208-1-0.546-1.349l0.001 0.001c-0.33-0.341-0.792-0.553-1.303-0.553 0 0 0 0-0 0v0z"></path>
<path stroke-linejoin="miter" stroke-linecap="butt" stroke-miterlimit="4" stroke-width="0.5246" d="M6.807 22.939c-0.001 0-0.002 0-0.002 0-0.455 0-0.865-0.188-1.159-0.491l-0-0-0.245-0.252c-0.293-0.304-0.474-0.718-0.474-1.175s0.181-0.871 0.474-1.175l-0 0 1.533-1.574c0.299-0.293 0.709-0.474 1.161-0.474s0.862 0.181 1.162 0.475l-0-0 0.244 0.251c0.294 0.304 0.474 0.718 0.474 1.175s-0.181 0.871-0.475 1.176l0-0-1.531 1.574c-0.294 0.303-0.706 0.491-1.161 0.491-0.001 0-0.001 0-0.002 0h0zM8.092 18.676c-0.206 0.001-0.392 0.087-0.524 0.224l-0 0-1.532 1.569c-0.138 0.143-0.223 0.338-0.223 0.553s0.085 0.41 0.223 0.553l-0-0 0.245 0.252c0.135 0.133 0.32 0.216 0.525 0.216s0.39-0.082 0.525-0.216l-0 0 1.531-1.574c0.138-0.143 0.224-0.338 0.224-0.553s-0.085-0.41-0.224-0.554l0 0-0.244-0.25c-0.132-0.138-0.318-0.224-0.525-0.225h-0zM7.253 18.589h0.006z"></path>
<path stroke-linejoin="miter" stroke-linecap="butt" stroke-miterlimit="4" stroke-width="0.5246" d="M8.751 25.305c-0.001 0-0.002 0-0.002 0-0.455 0-0.865-0.188-1.159-0.491l-0-0-0.244-0.251c-0.294-0.304-0.474-0.718-0.474-1.175s0.181-0.871 0.475-1.176l-0 0 1.531-1.574c0.299-0.294 0.709-0.475 1.161-0.475s0.863 0.181 1.162 0.475l-0-0 0.245 0.252c0.293 0.304 0.474 0.718 0.474 1.175s-0.181 0.871-0.474 1.175l0-0-1.532 1.574c-0.294 0.303-0.704 0.491-1.159 0.491-0.001 0-0.002 0-0.002 0h0zM9.512 21.267l-1.531 1.574c-0.138 0.143-0.224 0.338-0.224 0.553s0.085 0.41 0.224 0.554l-0-0 0.244 0.25c0.135 0.133 0.32 0.216 0.525 0.216s0.39-0.082 0.525-0.216l-0 0 1.532-1.569c0.138-0.143 0.223-0.338 0.223-0.553s-0.085-0.41-0.223-0.553l0 0-0.245-0.252c-0.135-0.133-0.32-0.216-0.525-0.216s-0.39 0.082-0.525 0.216l0-0z"></path>
<path stroke-linejoin="miter" stroke-linecap="butt" stroke-miterlimit="4" stroke-width="0.5246" d="M10.747 28.244c-0.001 0-0.002 0-0.002 0-0.455 0-0.865-0.188-1.159-0.491l-0-0-0.245-0.252c-0.294-0.304-0.474-0.718-0.474-1.175s0.181-0.871 0.475-1.175l-0 0 1.531-1.574c0.299-0.294 0.709-0.475 1.161-0.475s0.863 0.181 1.162 0.475l-0-0 0.245 0.252c0.294 0.304 0.474 0.718 0.474 1.175s-0.181 0.871-0.475 1.175l0-0-1.532 1.574c-0.294 0.303-0.704 0.491-1.159 0.491-0.001 0-0.002 0-0.004 0h0zM11.507 24.205l-1.531 1.574c-0.138 0.143-0.224 0.338-0.224 0.553s0.085 0.41 0.224 0.553l-0-0 0.245 0.252c0.135 0.133 0.32 0.216 0.525 0.216s0.39-0.082 0.525-0.216l-0 0 1.532-1.574c0.138-0.143 0.223-0.338 0.223-0.553s-0.085-0.41-0.223-0.553l0 0-0.245-0.252c-0.135-0.133-0.32-0.216-0.525-0.216s-0.391 0.083-0.526 0.217l0-0z"></path>
<path stroke-linejoin="miter" stroke-linecap="butt" stroke-miterlimit="4" stroke-width="0.5246" d="M12.679 30.224c-0.001 0-0.002 0-0.002 0-0.455 0-0.865-0.188-1.159-0.491l-0-0-0.245-0.251c-0.294-0.304-0.474-0.718-0.474-1.175s0.181-0.871 0.475-1.176l-0 0 1.532-1.574c0.299-0.294 0.709-0.475 1.162-0.475s0.863 0.181 1.162 0.476l-0-0 0.245 0.252c0.293 0.304 0.474 0.718 0.474 1.175s-0.181 0.871-0.474 1.175l0-0-1.532 1.574c-0.294 0.303-0.705 0.491-1.16 0.491-0.001 0-0.002 0-0.003 0h0zM13.439 26.184l-1.532 1.574c-0.138 0.143-0.223 0.338-0.223 0.553s0.085 0.41 0.224 0.554l-0-0 0.244 0.25c0.135 0.133 0.32 0.216 0.525 0.216s0.39-0.082 0.525-0.216l-0 0 1.532-1.569c0.138-0.143 0.223-0.338 0.223-0.553s-0.085-0.41-0.223-0.553l0 0-0.245-0.252c-0.135-0.133-0.32-0.216-0.525-0.216s-0.39 0.082-0.525 0.216l0-0z"></path>
<path stroke-linejoin="miter" stroke-linecap="butt" stroke-miterlimit="4" stroke-width="0.5246" d="M12.152 26.577c-0.244-0.002-0.441-0.2-0.441-0.445 0-0.121 0.048-0.23 0.126-0.311l-0 0 0.97-0.994c0.082-0.091 0.2-0.148 0.332-0.148 0.246 0 0.445 0.199 0.445 0.445 0 0.128-0.054 0.243-0.14 0.324l-0 0-0.97 0.994c-0.081 0.083-0.193 0.134-0.318 0.134-0.001 0-0.002 0-0.004 0h0z"></path>
<path stroke-linejoin="miter" stroke-linecap="butt" stroke-miterlimit="4" stroke-width="0.5246" d="M17.604 31.738c-0.008 0-0.017 0-0.026 0-0.872 0-1.64-0.445-2.090-1.12l-0.006-0.009-1.62-1.521c-0.086-0.081-0.14-0.196-0.14-0.324 0-0.121 0.048-0.231 0.127-0.311l-0 0 0.888-0.909c0.138-0.143 0.223-0.338 0.223-0.553s-0.085-0.41-0.223-0.553l0 0-0.245-0.252c-0.135-0.133-0.32-0.216-0.525-0.216s-0.39 0.082-0.525 0.216l0-0c-0.082 0.091-0.2 0.148-0.332 0.148-0.246 0-0.445-0.199-0.445-0.445 0-0.128 0.054-0.243 0.14-0.324l0-0c0.138-0.143 0.223-0.338 0.223-0.553s-0.085-0.41-0.223-0.553l0 0-0.245-0.252c-0.135-0.133-0.32-0.216-0.525-0.216s-0.39 0.082-0.525 0.216l0-0-0.064 0.066c-0.081 0.086-0.196 0.14-0.323 0.14-0.246 0-0.445-0.199-0.445-0.445 0-0.123 0.050-0.235 0.131-0.316l0-0c0.138-0.143 0.222-0.337 0.222-0.552s-0.085-0.409-0.222-0.552l0 0-0.245-0.252c-0.135-0.133-0.32-0.216-0.525-0.216s-0.39 0.082-0.525 0.216l0-0-0.914 0.935c-0.079 0.083-0.191 0.134-0.314 0.134-0.009 0-0.018-0-0.027-0.001l0.001 0c-0.132-0.007-0.247-0.070-0.325-0.165l-0.001-0.001c-0.063-0.078-0.101-0.177-0.101-0.286 0-0.121 0.047-0.23 0.123-0.312l-0 0 0.913-0.935c0.138-0.143 0.223-0.338 0.223-0.553s-0.085-0.41-0.224-0.554l0 0-0.244-0.25c-0.135-0.133-0.32-0.216-0.525-0.216s-0.39 0.082-0.525 0.216l0-0-0.657 0.673c-0.081 0.082-0.193 0.134-0.318 0.134-0.163 0-0.306-0.088-0.383-0.218l-0.001-0.002c-0.761-1.3-1.211-2.862-1.211-4.529 0-0.442 0.032-0.877 0.093-1.302l-0.006 0.049c0.014-0.098 0.058-0.184 0.123-0.25l-0 0 5.359-5.487c0.073-0.075 0.171-0.124 0.281-0.133l0.002-0c0.156-0.013 0.29-0.022 0.426-0.025h0.122c0.014-0 0.031-0 0.048-0 1.947 0 3.695 0.853 4.891 2.206l0.006 0.007c0.248-0.264 0.511-0.507 0.79-0.73l0.015-0.012c1.054-0.862 2.414-1.384 3.897-1.384 0.091 0 0.181 0.002 0.271 0.006l-0.013-0c0.117 0.005 0.221 0.055 0.297 0.133l0 0 5.771 5.913c0.072 0.074 0.119 0.172 0.126 0.282l0 0.001c0.011 0.168 0.017 0.365 0.017 0.563s-0.006 0.395-0.018 0.59l0.001-0.027c-0.080 1.424-0.449 2.744-1.049 3.927l0.026-0.056c0.157 0.267 0.271 0.58 0.322 0.913l0.002 0.015c0.027 0.14 0.042 0.3 0.042 0.464 0 1.005-0.574 1.875-1.412 2.301l-0.015 0.007c-0.205 0.092-0.443 0.156-0.692 0.179l-0.009 0.001c0.038 0.161 0.059 0.346 0.059 0.536 0 0.685-0.28 1.304-0.733 1.749l-0 0c-0.363 0.271-0.821 0.435-1.317 0.435-0.219 0-0.431-0.032-0.631-0.091l0.016 0.004c0.010 0.080 0.016 0.173 0.016 0.268 0 0.697-0.309 1.322-0.797 1.745l-0.003 0.002c-0.299 0.202-0.668 0.323-1.065 0.323-0.084 0-0.166-0.005-0.246-0.016l0.010 0.001c-0 0.399-0.103 0.773-0.284 1.099l0.006-0.012c-0.307 0.526-0.803 0.914-1.392 1.075l-0.016 0.004c-0.22 0.065-0.472 0.104-0.734 0.105h-0.001zM14.802 28.749l1.328 1.247c0.026 0.025 0.049 0.053 0.069 0.083l0.001 0.002c0.148 0.233 0.345 0.422 0.577 0.556l0.008 0.004c0.237 0.131 0.52 0.208 0.821 0.208 0.173 0 0.339-0.025 0.497-0.073l-0.012 0.003c0.374-0.097 0.682-0.334 0.87-0.649l0.004-0.006c0.106-0.203 0.168-0.443 0.168-0.698 0-0.148-0.021-0.29-0.060-0.425l0.003 0.011c-0.008-0.032-0.013-0.068-0.013-0.105 0-0.245 0.199-0.444 0.444-0.444 0.052 0 0.102 0.009 0.148 0.025l-0.003-0.001c0.156 0.069 0.337 0.109 0.528 0.109 0.226 0 0.439-0.056 0.626-0.155l-0.007 0.003c0.275-0.312 0.443-0.725 0.443-1.177 0-0.249-0.051-0.486-0.143-0.702l0.004 0.012c-0.014-0.042-0.022-0.090-0.022-0.14 0-0.246 0.199-0.445 0.445-0.445 0.082 0 0.159 0.022 0.225 0.061l-0.002-0.001c0.254 0.177 0.569 0.283 0.909 0.283 0.299 0 0.579-0.082 0.819-0.225l-0.007 0.004c0.258-0.307 0.415-0.707 0.415-1.144 0-0.28-0.065-0.545-0.18-0.781l0.005 0.011c-0.019-0.048-0.030-0.103-0.030-0.161 0-0.245 0.199-0.444 0.444-0.444 0.032 0 0.062 0.003 0.092 0.010l-0.003-0c0.087 0.019 0.188 0.030 0.291 0.030 0.201 0 0.392-0.042 0.565-0.118l-0.009 0.004c0.535-0.296 0.892-0.857 0.892-1.501 0-0.115-0.011-0.228-0.033-0.337l0.002 0.011c-0.045-0.295-0.156-0.558-0.318-0.782l0.004 0.005c-0.051-0.071-0.081-0.16-0.081-0.256 0-0.075 0.019-0.147 0.052-0.209l-0.001 0.002c0.586-1.084 0.961-2.36 1.039-3.716l0.001-0.024c0.017-0.286 0.018-0.574 0.006-0.856l-5.531-5.666c-0.025-0-0.055-0.001-0.084-0.001-1.26 0-2.415 0.451-3.312 1.199l0.008-0.007c-0.382 0.307-0.72 0.64-1.021 1.005l-0.009 0.012c-0.085 0.099-0.21 0.162-0.35 0.162-0.002 0-0.003 0-0.005-0h0c-0.141-0.004-0.266-0.073-0.344-0.178l-0.001-0.001c-1.039-1.388-2.68-2.277-4.528-2.277-0.016 0-0.032 0-0.047 0l0.002-0h-0.105c-0.069 0-0.136 0-0.205 0.011l-5.141 5.261c-0.038 0.296-0.059 0.639-0.059 0.986 0 1.295 0.3 2.52 0.834 3.609l-0.021-0.048 0.232-0.237c0.299-0.293 0.709-0.474 1.161-0.474s0.862 0.181 1.162 0.475l-0-0 0.244 0.251c0.294 0.302 0.475 0.715 0.475 1.17 0 0.027-0.001 0.054-0.002 0.080l0-0.004c0.017-0.001 0.037-0.001 0.057-0.001 0.457 0 0.87 0.188 1.166 0.491l0.246 0.252c0.294 0.302 0.475 0.715 0.475 1.17 0 0.001 0 0.001 0 0.002v-0c0.033-0.002 0.072-0.004 0.111-0.004 0.457 0 0.871 0.188 1.167 0.49l0 0 0.245 0.252c0.294 0.302 0.476 0.715 0.476 1.171 0 0.023-0 0.047-0.001 0.070l0-0.003c0.017-0.001 0.037-0.001 0.057-0.001 0.454 0 0.864 0.189 1.156 0.492l0 0 0.245 0.252c0.293 0.304 0.474 0.718 0.474 1.175s-0.181 0.871-0.474 1.175l0-0z"></path>
</symbol>
<symbol id="icon-person-name" viewBox="0 0 32 32">
<path fill="#fff" style="fill: var(--color4, #fff)" d="M7.505 1.058h17.067c3.52 0 6.4 2.88 6.4 6.4v17.067c0 3.52-2.88 6.4-6.4 6.4h-17.067c-3.52 0-6.4-2.88-6.4-6.4v-17.067c0-3.52 2.88-6.4 6.4-6.4z"></path>
</symbol>
<symbol id="icon-printer" viewBox="0 0 32 32">
<path stroke-linejoin="round" stroke-linecap="round" stroke-miterlimit="4" stroke-width="1.6" d="M10.72 13.387v-6.187h10.667v6.187"></path>
<path stroke-linejoin="round" stroke-linecap="round" stroke-miterlimit="4" stroke-width="1.6" d="M10.72 21.28h-1.813c-0.96 0-1.813-0.747-1.813-1.813v-4.373c0-0.96 0.747-1.813 1.813-1.813h14.187c0.96 0 1.813 0.747 1.813 1.813v4.373c0 0.96-0.747 1.813-1.813 1.813h-1.813"></path>
<path stroke-linejoin="round" stroke-linecap="round" stroke-miterlimit="4" stroke-width="1.6" d="M10.72 17.76h10.667v7.040h-10.667v-7.040z"></path>
</symbol>
<symbol id="icon-red-flag" viewBox="0 0 32 32">
<path fill="#fb9a9a" style="fill: var(--color8, #fb9a9a)" d="M0.96 1.28v29.547h5.333v-8.427h24.853l-11.093-10.24 10.987-10.88h-30.080z"></path>
</symbol>
<symbol id="icon-reports-deselected" viewBox="0 0 32 32">
<path stroke-linejoin="miter" stroke-linecap="butt" stroke-miterlimit="4" stroke-width="1.0323" d="M3.322 31.489c-2.225-0.659-2.772-1.271-2.772-3.105 0-7.269 0.053-14.538-0.034-21.806-0.024-2.035 1.784-3.144 4.064-3.005 0.484 0.029 0.977-0.021 1.461 0.009 0.162 0.033 0.349 0.053 0.54 0.053 0.78 0 1.485-0.319 1.993-0.833l0-0c0.627-0.506 1.434-0.813 2.312-0.813 0.237 0 0.47 0.022 0.694 0.065l-0.023-0.004c0.103 0.016 0.222 0.025 0.343 0.025 0.637 0 1.215-0.252 1.64-0.662l-0.001 0.001c0.67-0.555 1.538-0.891 2.484-0.891 1.049 0 2.002 0.414 2.704 1.087l-0.001-0.001c0.229 0.276 0.572 0.45 0.955 0.45 0.047 0 0.094-0.003 0.139-0.008l-0.006 0.001c1.743-0.090 3.363 0.056 4.335 1.383 0.076 0.103 0.422 0.133 0.644 0.136 1.065 0.014 2.132-0.008 3.2 0.010 2.095 0.036 3.486 1.077 3.488 2.651q0.018 11.316 0.006 22.632c0 1.432-1.089 2.205-2.772 2.626zM24.476 5.623c-0.023 0.221-0.039 0.356-0.050 0.492-0.131 1.667-1.342 2.535-3.57 2.537q-4.93 0.005-9.86 0c-1.981 0-3.241-0.906-3.383-2.394-0.019-0.198-0.045-0.396-0.072-0.636h-2.969c-1.27 0-1.37 0.069-1.37 0.997q0 10.901 0 21.8c0 0.952 0.087 1.014 1.349 1.015h22.824c1.393 0 1.452-0.043 1.453-1.076q0-10.831 0-21.663c0-0.16 0.076-0.364-0.026-0.472-0.214-0.227-0.506-0.556-0.793-0.574-1.142-0.071-2.303-0.032-3.535-0.032zM15.964 6.612c1.672 0 3.343 0 5.016 0 0.53 0 0.862-0.174 0.759-0.572-0.166-0.643 0.534-1.421-0.502-1.922-0.096-0.022-0.205-0.034-0.318-0.034-0.078 0-0.155 0.006-0.23 0.018l0.008-0.001c-0.791 0-1.581-0.009-2.374 0-0.076 0.014-0.164 0.021-0.253 0.021-0.634 0-1.178-0.388-1.406-0.94l-0.004-0.010c-0.086-0.224-0.452-0.387-0.69-0.577-0.206 0.188-0.53 0.353-0.609 0.568-0.223 0.567-0.766 0.962-1.401 0.962-0.089 0-0.176-0.008-0.26-0.022l0.009 0.001c-0.364-0.005-0.73 0-1.094 0-2.703 0.032-2.289-0.316-2.348 1.794-0.014 0.533 0.234 0.737 0.952 0.723 1.583-0.029 3.161-0.007 4.745-0.007z"></path>
<path stroke-linejoin="miter" stroke-linecap="butt" stroke-miterlimit="4" stroke-width="1.0323" d="M28.883 23.278c0 0.007 0 0.014 0 0.022 0 2.666-2.161 4.827-4.827 4.827s-4.827-2.161-4.827-4.827c0-2.637 2.115-4.781 4.742-4.826l0.004-0c0.040-0.001 0.087-0.002 0.134-0.002 2.636 0 4.773 2.137 4.773 4.773 0 0.012-0 0.023-0 0.035v-0.002zM21.372 21.783c-0.247 0.429-0.393 0.943-0.393 1.491 0 0.715 0.249 1.373 0.664 1.89l-0.005-0.006c0.53 0.739 1.387 1.214 2.355 1.214 0.27 0 0.531-0.037 0.779-0.106l-0.020 0.005c1.087-0.24 1.94-1.045 2.246-2.084l0.005-0.021c-0.955 0-1.823 0.041-2.684-0.020-0.4-0.036-0.758-0.193-1.042-0.434l0.003 0.002c-0.65-0.578-1.228-1.235-1.908-1.932zM26.938 22.419c-0.354-1.27-1.501-2.186-2.861-2.186-0.548 0-1.061 0.149-1.501 0.408l0.014-0.008c0.59 0.568 1.154 1.116 1.728 1.652 0.083 0.073 0.19 0.119 0.308 0.126l0.001 0c0.77 0.013 1.536 0.009 2.311 0.009z"></path>
<path stroke-linejoin="miter" stroke-linecap="butt" stroke-miterlimit="4" stroke-width="1.0323" d="M7.317 12.196c-1.051 0-2.102 0.006-3.153 0-0.628 0-0.98-0.321-0.989-0.858s0.331-0.874 0.971-0.878q3.182-0.022 6.364 0c0.031-0.004 0.066-0.006 0.102-0.006 0.487 0 0.885 0.386 0.903 0.869l0 0.002c0.008 0.522-0.401 0.87-1.047 0.873-1.050 0.002-2.1-0.002-3.151-0.002z"></path>
<path stroke-linejoin="miter" stroke-linecap="butt" stroke-miterlimit="4" stroke-width="1.0323" d="M6.043 15.263c-0.655 0-1.311 0.009-1.961 0-0.026 0.003-0.056 0.005-0.087 0.005-0.452 0-0.818-0.366-0.818-0.818 0-0.021 0.001-0.042 0.002-0.063l-0 0.003c-0-0.010-0.001-0.022-0.001-0.034 0-0.446 0.362-0.808 0.808-0.808 0.026 0 0.051 0.001 0.076 0.004l-0.003-0q1.961-0.025 3.931 0c0.011-0 0.023-0.001 0.035-0.001 0.474 0 0.859 0.384 0.859 0.859 0 0.016-0 0.032-0.001 0.047l0-0.002c-0.037 0.454-0.415 0.808-0.875 0.808-0.019 0-0.038-0.001-0.057-0.002l0.003 0c-0.64 0.009-1.276 0.003-1.912 0.003z"></path>
<path stroke-linejoin="miter" stroke-linecap="butt" stroke-miterlimit="4" stroke-width="1.0323" d="M6.042 18.329c-0.655 0-1.31 0.013-1.961 0-0.011 0-0.023 0.001-0.036 0.001-0.473 0-0.856-0.383-0.856-0.856s0.383-0.856 0.856-0.856c0.008 0 0.016 0 0.023 0l-0.001-0q1.961-0.018 3.931 0c0.014-0.001 0.031-0.001 0.048-0.001 0.472 0 0.855 0.383 0.855 0.855s-0.383 0.855-0.855 0.855c-0.012 0-0.024-0-0.036-0.001l0.002 0c-0.659 0.020-1.315 0.002-1.97 0.003z"></path>
</symbol>
<symbol id="icon-right-polygon" viewBox="0 0 32 32">
<path fill="#6460a0" style="fill: var(--color9, #6460a0)" d="M9.813 6.827l12.373 9.387-12.373 8.96v-18.347z"></path>
</symbol>
<symbol id="icon-run-report" viewBox="0 0 32 32">
<path d="M2.891 31.999c-2.309-0.676-2.866-1.305-2.866-3.2v-22.511c-0.231-1.537 1.231-2.927 3.276-3.113 0.133-0.014 0.286-0.022 0.442-0.022s0.31 0.008 0.461 0.024l-0.019-0.002h1.507c0.171 0.036 0.367 0.056 0.568 0.056 0.803 0 1.529-0.327 2.053-0.856l0-0c0.664-0.518 1.511-0.831 2.431-0.831 0.234 0 0.463 0.020 0.686 0.059l-0.024-0.003c0.107 0.017 0.232 0.026 0.358 0.026 0.656 0 1.252-0.258 1.691-0.679l-0.001 0.001c0.6-0.542 1.385-0.889 2.25-0.936l0.009-0c0.105-0.010 0.226-0.015 0.349-0.015 0.781 0 1.511 0.222 2.129 0.605l-0.017-0.010c0.25 0.159 0.465 0.342 0.652 0.551l0.003 0.003c0.238 0.284 0.593 0.463 0.99 0.463 0.049 0 0.098-0.003 0.146-0.008l-0.006 0.001c0.294-0.064 0.631-0.1 0.977-0.1 1.385 0 2.633 0.587 3.509 1.525l0.003 0.003c0.082 0.107 0.427 0.135 0.672 0.135h3.276c1.894-0.055 3.498 1.039 3.603 2.461v23.614c0.066 1.329-1.163 2.497-2.899 2.755zM24.79 5.292c-0.006 0.077-0.009 0.167-0.009 0.258s0.003 0.181 0.010 0.27l-0.001-0.012c0.002 0.037 0.004 0.080 0.004 0.123 0 0.687-0.327 1.298-0.834 1.686l-0.005 0.004c-0.63 0.498-1.433 0.802-2.307 0.812l-0.002 0c-0.083 0.009-0.18 0.014-0.278 0.014s-0.195-0.005-0.29-0.015l0.012 0.001h-10.27c-1.793 0.092-3.349-0.918-3.489-2.263q0-0.093 0-0.185v-0.669h-3.162c-1.31 0-1.409 0.074-1.409 1.034v22.476c0 0.985 0 1.045 1.392 1.045h23.636c1.441 0 1.507 0 1.507-1.107v-22.365c0-0.16 0.082-0.369 0-0.492-0.205-0.272-0.484-0.477-0.807-0.587l-0.012-0.004h-3.652zM15.995 6.313h5.209c0.541 0 0.884-0.172 0.786-0.591-0.213-0.665 0.557-1.463-0.557-2.017h-3.017c-0.066 0.009-0.142 0.015-0.22 0.015-0.665 0-1.238-0.396-1.495-0.965l-0.004-0.010c-0.098-0.234-0.475-0.394-0.721-0.591-0.213 0.197-0.541 0.369-0.623 0.591-0.257 0.575-0.823 0.968-1.482 0.968-0.055 0-0.11-0.003-0.164-0.008l0.007 0.001h-1.131c-2.801 0-2.375-0.32-2.441 1.858 0 0.554 0.245 0.763 0.982 0.747h4.914z"></path>
<path d="M29.343 23.466c0 0.009 0 0.020 0 0.031 0 2.757-2.235 4.992-4.992 4.992s-4.992-2.235-4.992-4.992c0-2.727 2.187-4.943 4.902-4.991l0.005-0c0.042-0.001 0.091-0.002 0.141-0.002 2.676 0 4.854 2.128 4.936 4.784l0 0.008zM21.578 21.962c-0.256 0.442-0.407 0.973-0.407 1.54 0 0.74 0.258 1.42 0.689 1.954l-0.005-0.006c0.546 0.763 1.429 1.254 2.427 1.254 0.275 0 0.541-0.037 0.794-0.107l-0.021 0.005c1.113-0.242 1.99-1.056 2.319-2.111l0.006-0.022h-2.773c-0.409-0.039-0.775-0.198-1.070-0.44l0.003 0.003c-0.661-0.661-1.259-1.344-1.963-2.069zM27.327 22.623c-0.371-1.303-1.551-2.241-2.949-2.241-0.287 0-0.564 0.039-0.827 0.113l0.022-0.005c-0.28 0.080-0.525 0.185-0.751 0.317l0.015-0.008 1.781 1.707c0.088 0.070 0.198 0.117 0.318 0.128l0.002 0z"></path>
<path d="M7.003 12.134h-3.253c-0.651 0-1.067-0.331-1.067-0.885s0.341-0.907 1.003-0.907h6.581c0.040-0.006 0.087-0.010 0.134-0.010 0.48 0 0.877 0.361 0.932 0.827l0 0.004v0.064c0 0.544-0.416 0.907-1.067 0.907z"></path>
<path d="M5.691 15.252h-2.027c-0.024 0.002-0.052 0.004-0.080 0.004-0.439 0-0.8-0.331-0.848-0.757l-0-0.004c-0.005-0.022-0.008-0.048-0.008-0.075s0.003-0.052 0.008-0.077l-0 0.002c-0.001-0.013-0.001-0.028-0.001-0.043 0-0.449 0.355-0.814 0.8-0.831l0.002-0h4.171c0.010-0 0.021-0.001 0.033-0.001 0.474 0 0.861 0.373 0.884 0.841l0 0.002v0.085c-0.033 0.468-0.421 0.834-0.894 0.834-0.023 0-0.046-0.001-0.069-0.003l0.003 0z"></path>
<path d="M5.691 18.407h-2.027c-0.038 0.006-0.082 0.009-0.127 0.009-0.489 0-0.885-0.396-0.885-0.885s0.396-0.885 0.885-0.885c0.018 0 0.037 0.001 0.055 0.002l-0.002-0h4.128c0.473 0.020 0.849 0.408 0.849 0.885 0 0.442-0.324 0.809-0.748 0.875l-0.005 0.001h-0.085c-0.683 0.021-1.365 0-2.037 0z"></path>
</symbol>
<symbol id="icon-search-deselected" viewBox="0 0 32 32">
<path fill="none" stroke="#1a335f" style="stroke: var(--color1, #1a335f)" stroke-linejoin="round" stroke-linecap="round" stroke-miterlimit="4" stroke-width="2.1333" d="M27.093 14.4c0 7.040-5.653 12.693-12.693 12.693s-12.693-5.653-12.693-12.693c0-7.040 5.653-12.693 12.693-12.693 0 0 0 0 0 0 7.040 0 12.693 5.653 12.693 12.693z"></path>
<path fill="none" stroke="#1a335f" style="stroke: var(--color1, #1a335f)" stroke-linejoin="round" stroke-linecap="round" stroke-miterlimit="4" stroke-width="2.1333" d="M30.293 30.293l-6.933-6.933"></path>
</symbol>
<symbol id="icon-search-selected" viewBox="0 0 32 32">
<path fill="none" stroke="#ffffff" style="stroke: var(--color10, #ffffff)" stroke-linejoin="round" stroke-linecap="round" stroke-miterlimit="4" stroke-width="2.1333" d="M27.093 14.4c0 7.040-5.653 12.693-12.693 12.693s-12.693-5.653-12.693-12.693c0-7.040 5.653-12.693 12.693-12.693 0 0 0 0 0 0 7.040 0 12.693 5.653 12.693 12.693z"></path>
<path fill="none" stroke="#ffffff" style="stroke: var(--color10, #ffffff)" stroke-linejoin="round" stroke-linecap="round" stroke-miterlimit="4" stroke-width="2.1333" d="M30.293 30.293l-6.933-6.933"></path>
</symbol>
<symbol id="icon-settings-icon" viewBox="0 0 32 32">
<path d="M25.28 16c0-1.173 0.747-2.24 1.813-2.667-0.32-1.173-0.747-2.24-1.387-3.307-0.32 0.213-0.747 0.213-1.173 0.213-1.6 0-2.88-1.28-2.88-2.88 0-0.427 0.107-0.747 0.213-1.173-1.067-0.64-2.133-1.067-3.307-1.387-0.427 1.6-2.133 2.347-3.627 1.707-0.747-0.32-1.387-0.853-1.6-1.6-1.173 0.32-2.24 0.747-3.307 1.387 0.64 1.387 0 3.093-1.493 3.733-0.32 0.213-0.747 0.213-1.067 0.213-0.427 0-0.747-0.107-1.173-0.213-0.64 1.067-1.067 2.133-1.387 3.307 1.493 0.533 2.24 2.24 1.6 3.733-0.32 0.747-0.853 1.387-1.6 1.6 0.32 1.173 0.747 2.24 1.387 3.307 1.387-0.64 3.093 0 3.733 1.493 0.32 0.747 0.32 1.6 0 2.347 1.067 0.64 2.133 1.067 3.307 1.387 0.533-1.493 2.24-2.24 3.627-1.6 0.747 0.32 1.387 0.853 1.6 1.6 1.173-0.32 2.24-0.747 3.307-1.387-0.64-1.493 0-3.093 1.493-3.733 0.747-0.32 1.6-0.32 2.347 0 0.64-1.067 1.067-2.133 1.387-3.307-1.067-0.533-1.813-1.6-1.813-2.773zM16 20.587c-2.56 0-4.587-2.027-4.587-4.587s2.027-4.587 4.587-4.587c2.56 0 4.587 2.027 4.587 4.587 0.107 2.56-2.027 4.587-4.587 4.587 0.107 0 0 0 0 0z"></path>
</symbol>
<symbol id="icon-single-star" viewBox="0 0 32 32">
<path d="M16 21.76l6.187 3.733-1.6-7.040 5.547-4.8-7.253-0.64-2.88-6.613-2.88 6.72-7.253 0.64 5.547 4.8-1.6 7.040 6.187-3.84z"></path>
</symbol>
<symbol id="icon-sort-arrows" viewBox="0 0 32 32">
<path fill="#6283ac" style="fill: var(--color1, #6283ac)" d="M11.947 8.853v10.773h-3.627l4.48 3.627 4.48-3.627h-3.627v-10.773h-1.707z"></path>
<path fill="#6283ac" style="fill: var(--color1, #6283ac)" d="M18.347 23.147v-10.773h-3.627l4.48-3.627 4.48 3.627h-3.627v10.773h-1.707z"></path>
</symbol>
<symbol id="icon-update-icon" viewBox="0 0 32 32">
<path fill="#143260" style="fill: var(--color11, #143260)" d="M9.493 19.84v2.667h2.667l8-8-2.667-2.667-8 8zM22.293 12.373c0.32-0.32 0.32-0.747 0-1.067 0 0 0 0 0 0l-1.707-1.707c-0.32-0.32-0.747-0.32-1.067 0 0 0 0 0 0 0l-1.28 1.28 2.667 2.667 1.387-1.173z"></path>
</symbol>
<symbol id="icon-yellow-star" viewBox="0 0 32 32">
<path fill="#ffba00" style="fill: var(--color12, #ffba00)" d="M16 9.493l1.6 4.907 4.907 0.107-3.947 3.093 1.387 4.907-3.947-2.88-4.053 2.88 1.387-4.907-3.947-3.093 4.907-0.107 1.707-4.907z"></path>
</symbol>
<symbol id="icon-filters" viewBox="0 0 32 32">
<path d="M31.061 3.722h-10.897c-0.122-0.335-0.292-0.624-0.505-0.876l0.003 0.004-1.723-2.027c-0.393-0.501-0.998-0.819-1.677-0.819s-1.284 0.319-1.674 0.815l-0.003 0.005-1.723 2.027c-0.209 0.247-0.379 0.536-0.495 0.851l-0.006 0.020h-11.424c-0.535 0.092-0.936 0.553-0.936 1.107s0.402 1.014 0.93 1.106l0.007 0.001h11.425c0.122 0.335 0.292 0.624 0.505 0.876l-0.003-0.004 1.723 2.027c0.393 0.501 0.998 0.819 1.677 0.819s1.284-0.319 1.674-0.815l0.003-0.005 1.723-2.027c0.209-0.247 0.379-0.537 0.495-0.852l0.006-0.020h10.897c0.536-0.091 0.939-0.551 0.939-1.106s-0.403-1.015-0.932-1.105l-0.007-0.001zM18.336 5.241l-1.723 2.027c-0.082 0.104-0.208 0.171-0.35 0.171s-0.268-0.066-0.349-0.17l-0.001-0.001-1.722-2.027c-0.090-0.112-0.145-0.256-0.145-0.413s0.055-0.301 0.146-0.414l-0.001 0.001 1.722-2.027c0.082-0.104 0.208-0.17 0.35-0.17s0.268 0.066 0.349 0.169l0.001 0.001 1.723 2.027c0.090 0.112 0.145 0.256 0.145 0.413s-0.055 0.301-0.146 0.414l0.001-0.001z"></path>
<path d="M31.061 15.056h-18.305c-0.123-0.335-0.293-0.624-0.506-0.876l0.004 0.004-1.723-2.027c-0.393-0.501-0.998-0.819-1.677-0.819s-1.284 0.319-1.674 0.815l-0.003 0.005-1.723 2.027c-0.209 0.248-0.379 0.537-0.495 0.852l-0.006 0.020h-4.015c-0.535 0.092-0.936 0.553-0.936 1.107s0.402 1.014 0.93 1.106l0.007 0.001h4.016c0.122 0.335 0.292 0.623 0.505 0.875l-0.003-0.004 1.723 2.027c0.393 0.501 0.998 0.819 1.677 0.819s1.284-0.319 1.674-0.814l0.003-0.005 1.723-2.027c0.209-0.247 0.38-0.536 0.496-0.851l0.006-0.020h18.305c0.535-0.092 0.936-0.552 0.936-1.107s-0.402-1.014-0.93-1.106l-0.007-0.001zM10.927 16.575l-1.723 2.027c-0.082 0.104-0.208 0.171-0.35 0.171s-0.268-0.066-0.349-0.17l-0.001-0.001-1.723-2.027c-0.090-0.112-0.145-0.256-0.145-0.413s0.055-0.301 0.146-0.414l-0.001 0.001 1.723-2.027c0.082-0.104 0.208-0.17 0.35-0.17s0.268 0.066 0.349 0.169l0.001 0.001 1.723 2.027c0.090 0.112 0.145 0.256 0.145 0.413s-0.055 0.301-0.146 0.414l0.001-0.001z"></path>
<path d="M31.061 26.066h-4.641c-0.122-0.335-0.292-0.624-0.505-0.876l0.003 0.004-1.723-2.027c-0.393-0.501-0.998-0.819-1.677-0.819s-1.284 0.319-1.674 0.814l-0.003 0.005-1.723 2.027c-0.209 0.247-0.379 0.537-0.495 0.852l-0.006 0.020h-17.679c-0.536 0.091-0.939 0.551-0.939 1.106s0.403 1.015 0.932 1.105l0.007 0.001h17.68c0.122 0.335 0.292 0.624 0.505 0.876l-0.003-0.004 1.723 2.027c0.393 0.501 0.998 0.819 1.677 0.819s1.284-0.319 1.674-0.814l0.003-0.005 1.723-2.027c0.209-0.247 0.379-0.537 0.495-0.852l0.006-0.020h4.641c0.536-0.091 0.939-0.551 0.939-1.106s-0.403-1.015-0.932-1.105l-0.007-0.001zM24.592 27.585l-1.723 2.027c-0.082 0.104-0.208 0.171-0.35 0.171s-0.268-0.066-0.349-0.17l-0.001-0.001-1.723-2.027c-0.090-0.112-0.145-0.256-0.145-0.413s0.055-0.301 0.146-0.414l-0.001 0.001 1.723-2.027c0.082-0.104 0.208-0.17 0.35-0.17s0.268 0.066 0.349 0.169l0.001 0.001 1.723 2.027c0.090 0.112 0.145 0.256 0.145 0.413s-0.055 0.301-0.146 0.414l0.001-0.001z"></path>
</symbol>
<symbol id="icon-hyphen" viewBox="0 0 32 32">
<path fill="#143260" style="fill: var(--color4, #143260)" d="M8 14.4v2.453h15.253v-2.453h-15.253z"></path>
</symbol>
<symbol id="icon-interchange" viewBox="0 0 32 32">
<path fill="#143260" style="fill: var(--color1, #143260)" d="M32 16c0 8.837-7.163 16-16 16s-16-7.163-16-16c0-8.837 7.163-16 16-16s16 7.163 16 16z"></path>
<path fill="#ffffff" style="fill: var(--color2, #ffffff)" d="M6.4 12.376v-0.625c0-0.518 0.42-0.938 0.938-0.938h14.062v-1.875c0-0.835 1.012-1.252 1.6-0.663l3.125 3.125c0.366 0.366 0.366 0.96 0 1.326l-3.125 3.125c-0.586 0.586-1.6 0.175-1.6-0.663v-1.875h-14.063c-0.518 0-0.938-0.42-0.938-0.938zM25.462 18.313h-14.062v-1.875c0-0.833-1.010-1.253-1.6-0.663l-3.125 3.125c-0.366 0.366-0.366 0.96 0 1.326l3.125 3.125c0.587 0.587 1.6 0.174 1.6-0.663v-1.875h14.062c0.518 0 0.938-0.42 0.938-0.938v-0.625c0-0.518-0.42-0.938-0.938-0.938z"></path>
</symbol>
</defs>
</svg>
